<svg xmlns="http://www.w3.org/2000/svg" width="80" height="80" fill="none"><g clip-path="url(#a)"><path fill="#fff" fill-rule="evenodd" d="M9.204 35.556C11.36 20.48 24.326 8.89 40 8.89c15.673 0 28.64 11.59 30.796 26.667H9.204Zm36.22 8.89H34.576A32.138 32.138 0 0 1 40 51.277a32.135 32.135 0 0 1 5.423-6.833Zm-.979 26.35c13.625-1.95 24.402-12.726 26.351-26.35h-3.258c-12.755.01-23.093 10.352-23.093 23.11v3.24Zm-32.001-26.35h.004c12.762.002 23.107 10.348 23.107 23.11v3.24c-13.625-1.95-24.402-12.726-26.35-26.35h3.239ZM40 0C17.909 0 0 17.909 0 40s17.909 40 40 40 40-17.909 40-40S62.091 0 40 0Z" clip-rule="evenodd"/></g><defs><clipPath id="a"><path fill="#fff" d="M0 0h80v80H0z"/></clipPath></defs></svg>